<svg xmlns="http://www.w3.org/2000/svg" viewBox="0 0 100 100" width="512" height="512"><metadata><rdf:RDF xmlns:rdf="http://www.w3.org/1999/02/22-rdf-syntax-ns#" xmlns:dc="http://purl.org/dc/elements/1.1/"><rdf:Description><dc:creator>RealFaviconGenerator</dc:creator><dc:source>https://realfavicongenerator.net</dc:source></rdf:Description></rdf:RDF></metadata><defs>
    <radialGradient id="core" cx="50%" cy="50%" r="50%">
      <stop offset="0%" stop-color="#fff8e7"></stop>
      <stop offset="30%" stop-color="#ffd580" stop-opacity="0.9"></stop>
      <stop offset="70%" stop-color="#c084fc" stop-opacity="0.5"></stop>
      <stop offset="100%" stop-color="#1e1035" stop-opacity="0"></stop>
    </radialGradient>
    <radialGradient id="bg" cx="50%" cy="50%" r="50%">
      <stop offset="0%" stop-color="#3b0764" stop-opacity="0.9"></stop>
      <stop offset="100%" stop-color="#0f0620"></stop>
    </radialGradient>
  </defs><circle cx="50" cy="50" r="50" fill="url(#bg)"></circle><circle cx="12" cy="28" r="0.9" fill="white" opacity="0.9"></circle><circle cx="80" cy="10" r="0.7" fill="white" opacity="0.8"></circle><circle cx="30" cy="88" r="0.8" fill="white" opacity="0.7"></circle><circle cx="92" cy="68" r="0.6" fill="white" opacity="0.9"></circle><circle cx="40" cy="5" r="0.5" fill="white" opacity="0.6"></circle><circle cx="72" cy="94" r="0.7" fill="white" opacity="0.7"></circle><circle cx="6" cy="64" r="0.6" fill="white" opacity="0.8"></circle><circle cx="66" cy="20" r="0.5" fill="white" opacity="0.5"></circle><circle cx="88" cy="22" r="0.5" fill="white" opacity="0.7"></circle><circle cx="20" cy="55" r="0.4" fill="white" opacity="0.6"></circle><circle cx="58" cy="85" r="0.6" fill="white" opacity="0.8"></circle><circle cx="95" cy="42" r="0.5" fill="white" opacity="0.7"></circle><circle cx="3" cy="38" r="0.4" fill="white" opacity="0.5"></circle><circle cx="48" cy="96" r="0.5" fill="white" opacity="0.6"></circle><g transform="translate(50,50)">
    <!-- Outer arm 1 -->
    <path d="M0,0 C6,-18 22,-30 38,-24 C48,-18 46,-4 34,6 C22,14 6,12 -4,22 C-14,30 -18,44 -8,46" fill="none" stroke="#a855f7" stroke-width="4" stroke-linecap="round" opacity="0.5"></path>
    <!-- Outer arm 2 -->
    <path d="M0,0 C-6,18 -22,30 -38,24 C-48,18 -46,4 -34,-6 C-22,-14 -6,-12 4,-22 C14,-30 18,-44 8,-46" fill="none" stroke="#818cf8" stroke-width="4" stroke-linecap="round" opacity="0.5"></path>
    <!-- Mid arm 1 -->
    <path d="M0,0 C10,-12 26,-14 28,-4 C30,6 18,14 8,16 C-2,18 -14,14 -16,24" fill="none" stroke="#c084fc" stroke-width="3.5" stroke-linecap="round" opacity="0.7"></path>
    <!-- Mid arm 2 -->
    <path d="M0,0 C-10,12 -26,14 -28,4 C-30,-6 -18,-14 -8,-16 C2,-18 14,-14 16,-24" fill="none" stroke="#818cf8" stroke-width="3.5" stroke-linecap="round" opacity="0.7"></path>
    <!-- Inner arm 1 -->
    <path d="M0,0 C4,-6 12,-8 14,-2 C16,4 10,8 4,8" fill="none" stroke="#e879f9" stroke-width="2.5" stroke-linecap="round" opacity="0.9"></path>
    <!-- Inner arm 2 -->
    <path d="M0,0 C-4,6 -12,8 -14,2 C-16,-4 -10,-8 -4,-8" fill="none" stroke="#a5b4fc" stroke-width="2.5" stroke-linecap="round" opacity="0.9"></path>
    <!-- Core glow -->
    <circle r="10" fill="url(#core)" opacity="0.95"></circle>
    <circle r="4" fill="#fff8e7" opacity="0.9"></circle>
    <circle r="1.5" fill="white"></circle>
  </g></svg>